# xmcd CD database file
#
# Track frame offsets:
#	150
#	27918
#	64880
#	91088
#	140693
#	170910
#	210453
#	246729
#	272200
#	297374
#
# Disc length: 4623 seconds
#
# Revision: 0
# Processed by: cddbd v1.5.2PL0 Copyright (c) Steve Scherf et al.
# Submitted via: CDex 1.70beta1
#
DISCID=a1120d0a
DTITLE=Lee Morgan - Essential Blue - The Classic of Lee Morgan
DYEAR=2007
DGENRE=Jazz
TTITLE0=Mesabi Chant
TTITLE1=Nakatini Suite
TTITLE2=Yesterday
TTITLE3=The Gigolo
TTITLE4=Latin Hangover
TTITLE5=Mr. Kenyatta
TTITLE6=Afreaka
TTITLE7=Somethin' Cute
TTITLE8=Since I Fell For You
TTITLE9=Croquet Ballet
EXTD=YEAR: 2007
EXTT0=
EXTT1=
EXTT2=
EXTT3=
EXTT4=
EXTT5=
EXTT6=
EXTT7=
EXTT8=
EXTT9=
PLAYORDER=
